<svg version="1" xmlns="http://www.w3.org/2000/svg" width="400" height="400" viewBox="0 0 300.000000 300.000000"><path d="M160.5 21c-1.6.4-7.3.8-12.5.9-13.7.2-26.1 1.8-32.7 4.3-5.3 1.9-12.3 7.5-14.9 11.8-.5.8-6.7 3.5-13.9 5.8C69.8 49.4 54.4 57 48 62.7c-11.2 10.1-24.1 33.5-37.5 67.8-2.3 6-5.4 13.5-6.8 16.6-2.4 5.4-2.5 5.8-.9 7.5 1 1.1 2.7 3.2 4 4.8 3.9 5.1 16.5 15.6 23 19.3 8.5 4.8 16.8 7.2 25.5 7.5l7.2.3-.3 4c-.2 2.2-.9 10.5-1.7 18.5-1.7 17.4-3.5 47.1-3.5 58.4 0 9.9 1.1 11.8 8.3 14.3 8.4 2.9 33.2 2.4 50.6-1 13.7-2.8 19.6-3.2 28.9-2 4.4.5 5.5 1 6.2 2.9 1.4 3.5 4.1 4.4 14.2 4.4 19.6 0 47.9-4.8 64.1-11 8.1-3.1 13.9-7.7 15.5-12.5 2.6-7.5.4-27.5-6.3-58-1.4-6.6-3.2-14.7-3.9-18l-1.3-6 5-.7c11.2-1.4 28.7-13.3 43.4-29.4 8.4-9.2 12.3-14.8 12.3-17.7 0-1-1.1-3.3-2.4-5-1.3-1.8-4.3-6.6-6.6-10.7-14.3-25.4-28.4-45.3-42-59.1-7.4-7.5-9.9-9.3-19-13.8-6.3-3-14.8-6.2-21.3-7.9-7.9-2-10.9-3.2-11.3-4.5-1.2-3.8-8.6-9.6-13.6-10.6-5.5-1.2-12.8-1.2-17.3-.1zm5 9.5c-1.6.8-3.7 1.4-4.5 1.5-.9 0-.6.6 1 1.7 1.4 1 2.7 1.7 3 1.6.3-.1.6 1.8.8 4.2.2 3.6-.1 4.5-1.7 5-2.5.8-7.1-.4-9.5-2.4-1.7-1.5-1.8-1.5-1.6.4.4 2.7-.9 5.6-3.5 7.7-3.3 2.8-5.1 2.2-6.9-2.2-1.9-4.8-2-7.3-.5-10.3.9-1.8.9-2-.2-1-2.4 2.3-7.6 1.5-11.1-1.6-1.8-1.6-2.9-3.3-2.5-3.8.9-.9 13.6-1.8 29.7-2 9.7-.2 10.3-.1 7.5 1.2zm-43.1 14.8c1.9 2.5 1.9 2.6 0 5.4l-1.9 2.8-.3-2.5c-.8-5.9-4.2-4.6-4.2 1.7 0 2.6-.5 3.4-2.3 3.8-3.6.9-8 .2-10.1-1.7-1.9-1.7-1.8-1.9 1.5-8.5 2.5-5 4-6.9 5.9-7.4 2.9-.6 8.4 2.4 11.4 6.4zm-21.4.1c0 .3-.4 1.6-1 3-.7 1.8-1.5 2.4-2.7 2-1.7-.5-1.7-.5-.1.6 1.6 1 1.5 1.6-1.8 7.8-4.9 9.5-7 12-8.5 10.4-1.1-1-.9-2.7.6-8.7 1-4.1 1.5-7.8 1.2-8.2-.4-.3-.7.4-.7 1.7 0 3.8-4.6 10.6-8.4 12.4-3.7 1.7-12.2 2.1-14.5.7-1.1-.7-1.2-1.8-.5-5.1.9-3.9 1.3-4.3 7.7-7.1 3.8-1.7 7.6-3.2 8.5-3.4.9-.2 2.9-.8 4.4-1.4 2-.7 2.8-.7 3.2.2.2.7.5.5.5-.4.1-1.1 1.9-2.1 5.4-3.1 6.1-1.8 6.7-1.9 6.7-1.4zm103 2.7c0 .5.3.8.8.6 1-.7.2 9.6-.9 10.9-.6.8-.2 1 1.5.7 3.5-.7 8.9 1.3 10.5 3.8 1.8 2.9-.1 6.4-4.2 7.9-1.6.5-3.1 1-3.3 1C207 73 195 52.4 195 50.1c0-1 4.5-2.9 7.3-3 .9-.1 1.7.4 1.7 1zm-33.9 6.4c3.1 1.2 3.8 16.3 1.4 29.2-1.7 8.9-7.7 21.9-12.8 27.5-5.5 6-13.9 12.8-15.9 12.8-3.6 0-17-24.1-20.4-36.5-.8-3.3-1.8-11-2.1-17.2l-.6-11.2 6.9-2c11.4-3.5 21-4.7 31.9-3.9 5.5.3 10.7.9 11.6 1.3zm20.5 1c.9 1.1 1.3 1.3 1.6.4.2-.7 2.2 1.9 4.3 5.7 2.1 3.8 4.9 8.2 6.2 9.7 1.2 1.6 2.3 3.2 2.3 3.7 0 1.2-9.7 7-10.4 6.3-.3-.4-.6-2-.6-3.7 0-3 0-3-1.6-.8-1.2 1.8-2.5 2.2-7.1 2.2-4.9 0-5.4.2-4.8 1.7.4 1 1.2 3.3 1.7 5.2.9 3.2.8 3.7-1.6 5.4-3.1 2.2-3.3 4.3-.6 5.2 2.5.8 2.5 2.2.3 4.8-1.7 2-1.7 2 .2 1.2 4.8-1.9 7.6-1.7 13 1 3 1.6 5.5 3.4 5.5 4.1 0 1.2-16 10.4-18.2 10.4-.6 0-2.1-.8-3.2-1.8-2.1-1.7-2.1-1.7-.2.6 1.1 1.2 1.7 2.4 1.5 2.6-1.4 1.3-13.1 7.7-13.5 7.3-.3-.2 0-1.6.6-3.1.5-1.5 1-3.5.9-4.4 0-.9-.7.3-1.5 2.8-1 2.8-2.8 5.4-4.9 7-1.8 1.4-3.2 2.7-3 3 .5.8-13.9-.1-14.7-.8-1.1-1 .2-2.4 5.2-5.6 4.9-3.2 15.6-13.8 17.9-17.7 3.6-6 6.3-12.6 8.3-19.9 1.5-5.7 2.6-8 3.9-8.3 1.1-.3 1.9-1.4 1.9-2.7 0-2.9 1.7-6.1 4.6-8.5l2.4-2.1-2.7-.2c-4-.3-6.3-2.9-6.3-7.3 0-3.3.4-4 2.5-4.5 1.4-.3 2.3-1 2-1.4-.9-1.5 7 .9 8.1 2.5zm-85.5 4.7c1.1 2.2 1.6 3.7 1.1 3.4-.5-.3-1.2 1.6-1.6 4.2-.3 2.6-1.7 6.4-3.1 8.4-2 3-3.1 3.7-5.4 3.5-1.6-.1-2.7-.5-2.5-.8.2-.4-.3-1.2-1.1-1.9-1.3-1.1-1.4-1-.9.6.4 1 .4 1.6 0 1.3-2.1-1.9-1.2-5.5 3.4-12.5 2.7-4.1 5.2-8.4 5.5-9.5.8-2.5 2.1-1.7 4.6 3.3zm139.5 7c1.7 1.8 4.3 5.1 5.9 7.3 1.6 2.2 3.5 4.6 4.3 5.4C256.8 82 272 105 272 106c0 1.4-1.8 2.1-2.4 1.1-.4-.5-1.7-.8-3.1-.7-1.3.2-2.2 0-2-.4.7-1.1-3-4.1-3.9-3.3-.4.5-.6.3-.5-.2.2-.6-.5-2.4-1.4-4l-1.8-3 .8 3.5c1.3 5.8.8 10.4-1.2 13.2-2.8 3.6-8.2 7.1-9.9 6.5-3.1-1.2-6-8.9-6.2-16.4-.1-4 .2-7.1.6-6.8.5.3 1.4-.3 1.9-1.3 1-1.9.9-1.9-2.7 0-2.8 1.5-4.8 1.8-8.2 1.3-2.5-.3-5.3-.7-6.2-.8-.9-.1-1.4-.5-1.2-.9.5-.8-1.1-1.2-2.9-.9-.5.1-.6-.3-.3-.8s-.1-1.4-.9-2.1c-2-1.7-1.9-3.2.5-6.2 1-1.4 1.6-2.9 1.2-3.3-.4-.5-.2-.5.5-.1.6.3 1.8-.2 2.5-1.1 1.6-2.2 2.8-2.6 10-3.1 3.2-.2 6.6.1 7.8.8l2.2 1.2-1.8-2.5c-1.1-1.4-2.1-2.4-2.4-2.2-.3.2-.6-1.9-.8-4.6-.1-2.7.1-4.9.6-4.9.4 0 2.2 1.5 3.8 3.2zM46.4 82.9c2.2 2.3 2.8 3.9 2.9 7.6l.1 4.7 1.4-2.9c2.3-4.2 4.2-5.2 9.9-5.3h5.2l2.1 6.6c2.2 7.4 2.5 10 1 10.9-.6.4-.8.9-.6 1.3.2.4-1 .8-2.7.9-7 .5-10 2.4-5.9 3.7 2.7.9 7.5 5.5 7.8 7.4.1.9.6 3.4.9 5.4.7 3.5.5 3.8-2.1 4.9-1.7.6-4.7.8-7.4.4-2.5-.4-5.3-.8-6.2-.8-.9-.1-1.5-.4-1.2-.8.2-.4-.4-1.3-1.3-2-.9-.8-2.5-2.8-3.5-4.4l-1.9-3 .7 3.5c1.1 4.7.8 9.8-.6 11.5-.7.8-.8 2-.4 2.7.4.7.4 1-.1.6-.4-.4-2.3.6-4.2 2.3-1.9 1.6-4.2 2.9-5.1 2.7-1-.2-3.1-3-4.7-6.2-3.7-7.2-3.8-12.2-.4-17.4l2.5-3.7-4.8 2.4c-2.7 1.3-5.1 2.1-5.5 1.8-.3-.4 1.2-4.6 3.4-9.4 2.9-6.2 4.6-8.8 5.7-8.7 1.3.2 1.4-.1.5-1.2-.9-1.1-.1-3.2 3.7-9.9C38.5 83.3 41 80 42 80c.9 0 2.9 1.3 4.4 2.9zM205 81.7c-.1 1.8-2.6 4.9-3.7 4.7-.7-.1-1.7-.2-2.3-.3-1.9-.2-1-2 1.8-3.5 3.1-1.7 4.2-1.9 4.2-.9zM74.2 91.4c.3-.3.9 0 1.3.6.3.6.1.9-.6.8-.7-.2-1.5.6-1.7 1.7-.4 1.6-.2 1.7 1.1.7 1.2-1 1.7-.9 2.8.5 1.3 1.6 1.2 1.7-.3.5-1.4-1.2-1.9-1-3.5 1.4l-1.8 2.8-.6-2.9c-.4-1.7-.7-4.3-.8-5.9-.1-2.8 0-2.8 1.7-1.3 1 1 2.1 1.4 2.4 1.1zm24.3-.1c2.8 1.6 4.1 3.1 4.5 5.1.4 2.6.6 2.7 1.9 1.3 1-1.3 1.8-1.4 3.3-.6 1 .6 1.8 1.4 1.6 1.9-.6 1.8-21.3 16-23.3 16-1.1 0-3.5-.9-5.2-2-2.4-1.4-3.2-2.6-3.1-4.4.1-1.4.4-2.3.6-2.1.2.2 1.5-.6 2.9-1.8 1.3-1.2 2.8-2.1 3.1-2 .4 0 1.5-.3 2.6-.9 1.3-.7 2.1-.6 2.8.3.7 1 .8.9.4-.6-1.5-6.2-.2-12.5 2.7-12.5.7 0 3 1.1 5.2 2.3zm19.3 10.5c-1.3 2.9-4.7 7.2-5.7 7-2.7-.3-3.3.3-1.6 1.6 1.1.8 2.2 1.3 2.6 1.1.3-.2.6.1.7.8 0 .7.4 2.9.8 4.9.6 3.7.6 3.8-2.3 3.8-1.7 0-5.5-1.1-8.4-2.4-3-1.3-6.2-2.6-7.3-3-1.5-.5-.1-1.9 7-7.2 4.9-3.6 9.5-6.8 10.2-7.1.6-.3 1.2-1.4 1.2-2.4 0-1.7.3-1.8 2-.9s1.8 1.4.8 3.8zm84 11.8c-.2.9-2.1 2.9-4.4 4.6-3.3 2.4-4.9 2.9-8.5 2.6l-4.4-.3 8-4.2c9-4.7 9.8-5 9.3-2.7zm-105.1 5.9c3.4 1.4 4.2 2.2 4.1 4.1-.1 1.2-.4 2.1-.7 1.8-.3-.2-1.7.7-3.2 2.2l-2.7 2.5-2-3.3c-1.8-2.9-2.7-6.4-2.3-9.2.1-.4.7-.6 1.4-.3.6.3 3.1 1.3 5.4 2.2zm161.4 5.4c.9 3.1.9 4.4-.3 6.8l-1.4 2.8 3.9-.4c3.1-.3 4.4.2 6.8 2.5 3.6 3.4 3.6 4.8.4 7.6-1.8 1.6-3.6 2.2-6 1.9-3.6-.3-4.4.6-2.4 2.6 1.7 1.7-2.8 11.3-5.3 11.3-3 0-7.4-5.3-6.9-8.3.2-1.1-1.7-.8-4.2.7-1.2.7-3.5 1.3-5.2 1.2-2.4-.1-3.1-.6-3.3-2.5-.6-4.1.8-7.1 4.1-9.1l3.2-2H238c-2.8 0-3.9-.6-5.2-2.8-.9-1.5-1.8-3.8-2-5.2-.3-2.1.3-2.7 4-4 3.9-1.3 4.6-1.3 7.3.2 3.1 1.8 3.3 1.6 3.2-2.9-.1-.7.2-1.1.6-.8.4.2 2-.5 3.7-1.6 4.7-3.1 7.1-2.5 8.5 2zm-74.8 3.5c-.1 2.3-.8 5.9-1.7 7.9-1.5 3.6-1.6 3.7-7 3.7-4.7 0-5.7-.4-7.5-2.6-1.2-1.5-2.1-3.4-2.1-4.3 0-2.1 16.1-11.4 17.5-10 .5.6.9 2.9.8 5.3zm-66.8 6.2c2.3 5.6 2 14.5-.7 18-2.1 2.6-2.1 2.7-.3 2 4.3-1.6 7.5-1.8 11.2-.5 2.1.7 4.2 1.2 4.8 1 .5-.1.7.1.2.5-.4.4-.1 1.4.7 2.3.7.9 1.7 3.7 2 6.3.6 4.1.4 4.8-1.4 5.8-1.1.6-1.8 1.5-1.6 1.9.3.4-1.3.8-3.5.9-2.3.1-4.4.4-4.8.7-.4.2-2.5-.5-4.6-1.6l-3.8-2 2.1 2.6c3.7 4.6 1.8 16.6-3.5 22.6-1.9 2.3-4.7 1.4-8.2-2.6-1.6-1.9-3.2-3.2-3.5-2.9-.3.2-.4.1-.1-.2.2-.4-.1-1.6-.7-2.8-1.4-2.5-1.1-6.4.8-11.9.8-2.2 1.4-4.9 1.3-6.1 0-1.1-.7.2-1.4 3.1-.8 2.8-2.6 6.3-4 7.7-1.4 1.4-2.4 3-2.2 3.4.6.9-13.6 1.6-16.1.7-1.6-.4-1.8-1.2-1.2-4.3.3-2 1.2-4.7 1.9-6 .6-1.2.8-2.2.4-2.2s.7-1 2.4-2.1c1.8-1.2 3-2.5 2.7-3-.3-.5.1-.6.8-.4.8.3 2.2-.1 3.3-.9 1.9-1.4 1.8-1.4-1.5-1.2-1.9.1-4.9-.4-6.6-1.1-1.7-.7-3.5-.9-3.9-.5-.3.4-.5 0-.3-.8.1-.8-.2-1.4-.7-1.3-.6.1-1.1-.6-1.2-1.5-.5-4.6-1.6-8.1-2.4-7.6-.5.3-.4-.7.3-2.1 1.5-3.3 5.5-5.4 11.6-6.2 3.9-.4 5.2-.1 7.5 1.7 1.6 1.3 3.3 3.2 3.7 4.4.8 2 .9 1.9.9-.5.2-7.1 5.8-13.3 14.2-15.7 1.9-.6 3.5-1.1 3.6-1.1.2-.1 1 1.5 1.8 3.5zM178 143c0 .5-1.2 1-2.6 1-1.4 0-2.3-.4-1.9-1 .3-.6 1.5-1 2.6-1 1 0 1.9.4 1.9 1zm14.2.8c.9.8 2.2 1.1 2.9.6.7-.4 1-.3.5.4-.3.6-.1 2.2.6 3.6 1.1 2.5 1.2 2.5 2.9 1 2-1.8 7.9-1.4 10.5.7 2 1.7 1.7 5.2-.7 8.3-1.5 1.9-3 2.6-5.7 2.7-2 0-3 .3-2.2.6 3.7 1.4 7 5.7 7 9.2 0 3.5-.1 3.6-4 3.5-2.2-.1-5-.8-6.2-1.6-2.2-1.5-2.3-1.4-3.6 2.1-.7 2-1.4 4.1-1.4 4.8-.1.7-.5 1-.9.7-.5-.3-1.7 0-2.8.5-1.4.8-2.2.7-3.1-.4-.7-.8-1.5-1.3-1.9-1.1-.3.3-.6-2.6-.6-6.2v-6.7l-5.2.1c-2.9 0-5-.3-4.8-.6.3-.4-.1-1.3-.9-1.9-1.8-1.5-.9-4.9 1.6-6.2 1-.5 1.6-1.5 1.2-2-.3-.6 0-1 .7-.8.8.1 2.8.1 4.5 0 3-.1 3.1-.2 2.7-3.9-.2-2 0-5 .6-6.5.9-2.3 1.6-2.8 3.9-2.6 1.5.2 3.5.9 4.4 1.7zm-146.6 3.4c.4.6.3.8-.4.4-.6-.3-1.3-.2-1.6.3-.7 1 3.2 2.7 4.9 2.2.6-.1.7 0 .3.4-.3.3 0 1.8.7 3.2.7 1.4 1.1 3.3.8 4.2-.4 1.3-.2 1.3.7-.2.6-.9.9-2.1.6-2.6-.9-1.4 10-.7 11.8.8 2 1.7 2 4.3.1 8-.8 1.6-1.2 3-1 3.2.2.3-1.4.3-3.7.1l-4-.4 3.9 3.9c2.7 2.7 3.9 4.8 3.8 6.4-.1 2.1-.7 2.4-4.8 2.7-3.9.3-5.1-.1-7.2-2.2l-2.5-2.5.6 2.4c.7 3-.3 3.2-7 .9-3.8-1.3-4.7-2-4.3-3.5.3-1.2 0-1.9-1-1.9-.8 0-1.1.4-.8 1 1.1 1.7-7-2.1-8.7-4.2-1.7-1.9-1.7-2.1 0-4.3 2-2.8 5.3-4.5 8.7-4.5 2.1 0 2.3-.3 1.8-3.8-.6-4.9 1.1-9.2 3.6-9.2 1.1 0 2.3-.5 2.6-1 .8-1.3 1.2-1.3 2.1.2zm-20.3 15.9c-.8.8-1.3.7-1.8-.2-.6-.8-.4-1 .5-.4 1 .6 1.2.4.6-1.1s-.5-1.7.5-.7c.9 1 1 1.6.2 2.4zM81.1 194c3.7 1.6 4.5 4.7 2.8 10.1-1.8 5.4-5.2 7.9-12 8.8-5.3.6-5.4.7-2.4 1.8 3.5 1.2 8.4 5.8 9.6 9.1 1.3 3.3 1.1 10.9-.2 11.8-1.4.8-10.9 1.1-10.9.3 0-.4-1-.9-2.1-1.2-2.1-.6-2.2-.9-1.5-10.2.4-5.2.9-10.3 1-11.3.2-.9.7-5.9 1.1-11 .6-8.2 1-9.4 2.8-10.1 2.2-.8 7-.1 11.8 1.9zm135.4 5.7c.9 1.7 1.6 5.5 1.6 8.3.1 2.8.6 5.3 1.2 5.7.7.4.8-.1.3-1.3-.5-1.4-.4-1.6.5-.7 1.2 1.2.3 3.7-1.1 2.8-.5-.3-1.4.5-2.1 1.7-.7 1.3-1.7 2.7-2.3 3.1-.6.5 0 .5 1.4 0 5.1-1.7 10.5-.9 15.1 2.2 2.4 1.6 4.6 2.9 4.9 2.8.3-.1.6 1.5.8 3.4.6 8.3-11 13.3-19.4 8.4l-3.9-2.3 2.2 2.4c4.6 4.9 4 14.8-1.3 23.1-2.4 3.7-2.5 3.7-5.4 2.2-1.7-.9-4.4-3.5-6.1-5.8-2.7-3.6-3-4.8-2.6-9 .4-5.1.4-5.1-4.8-.4-2.3 2.1-4 2.5-12 2.9l-6.1.4.7-5.6c.3-3 .4-5.9.1-6.4-.3-.5 0-.6.6-.2 1 .6 3.5-2.7 3.7-4.9.1-.6.6-.9 1.2-.8.7.2 3.1-.6 5.5-1.7l4.3-2h-6c-8.6 0-12.2-3.1-13.8-11.7-.8-4 1.8-6.8 7.7-8.4 5.4-1.5 10-.4 12.9 3.1l2.5 2.9.7-4.4c.5-3.5 1.4-5.1 4.1-7.2 2.2-1.7 3.1-2.9 2.4-3.3-.8-.5-.6-.9.5-1.3.9-.4 1.3-.3 1 .3-.7 1.1.6 1.3 2.9.4.9-.3 1.4-.9 1.2-1.3-.2-.3.9-.6 2.5-.6 2.3 0 3.2.7 4.4 3.2zm-106-1.7c.3.5.1 1-.4 1-.6 0-1.1-.5-1.1-1 0-.6.2-1 .4-1 .3 0 .8.4 1.1 1zm13.6 6.3c2.4 1.6 3.5 3.2 3.9 5.7l.5 3.3 1.3-2.4c1.6-3 5.9-3.6 10.1-1.4 3.9 2 4.2 3.3 1.8 7.7-1.8 3.3-2.6 3.8-5.6 3.8h-3.4l3.6 3.2c2.3 2.2 3.7 4.4 3.9 6.3.3 2.9.2 3-4.4 3.3-4.1.3-5.2-.1-7.4-2.3-2.6-2.6-2.7-2.5-.8 2.1.3.6-.6 2.4-1.9 4-1.4 1.6-2.6 3.3-2.8 3.9-.8 2-3.9 1.4-5.5-1-2.1-3.2-3.4-9.8-2.3-11.7.6-1.1.1-1.5-2.4-1.5-7.2-.3-8.1-.7-8.5-4.5-.3-3.2.1-3.8 3.3-5.8 2.3-1.4 4.6-2.1 6.6-1.8 2 .3 2.6.1 1.9-.6-1.3-1.3-1.3-8.2 0-10.7 1.4-2.5 3.9-2.4 8.1.4zm-10.1 8.1c0 .2-.7.7-1.6 1-.8.3-1.2.2-.9-.4.6-1 2.5-1.4 2.5-.6zm-8.2 28.6c1.9 6.3 1.1 13.4-1.9 16.8-1.3 1.4-1.7 2.1-.8 1.4.9-.6 1.9-.9 2.2-.5.4.3.7-.1.7-1s.5-1.7 1.1-1.7c.5 0 .7.5.3 1.1-.4.7.5 1 2.7.8 4.7-.3 7.7 1.2 12.8 6.4l4.3 4.5-2.3 2.6c-1.9 2-4 2.8-10.2 3.8-7.5 1.1-7.8 1.1-11-1.2-3-2.2-3.1-2.2-1.3-.2 2.2 2.6 1.7 3.5-2.3 3.8-1.6.1-4.2.5-6 .9-2.6.5-3.1.4-3.1-1.1 0-1.7-.1-1.7-1.3 0-1.2 1.6-2.4 1.8-10.1 1.2-4.8-.3-9.2-.8-9.7-1.1-1.6-1 2.1-5.3 6.4-7.4 3.6-1.8 3.8-2.1 1.7-2.1-1.4 0-4.3-.3-6.4-.7-3.2-.5-3.8-.4-3.1.8.5.8.5 1.1.1.7-.4-.3-.8-1-.8-1.5.1-1.2-3-4.3-3.7-3.9-.4.3-.8-2.6-.9-6.2-.3-7.9.7-9 9.3-9.9 6.1-.6 8.8.5 11.5 5l2 3.2v-4.6c0-5.8 2.3-8.9 9.3-12.3 7-3.6 8.8-3.2 10.5 2.4zm78.6 25c.4 0 .4-.5 0-1.2s-.3-.8.4-.4c.6.4.9 1.3.6 2-.3.8 0 1.7.5 2.1.6.3.9 1.1.6 1.6-.4.5.1.9.9.9s1.8-.5 2.1-1c.9-1.5 5.3-1.2 9 .6 2.9 1.3 3.2 1.9 2.6 4.2-.9 3.2-2.2 3.5-22.3 5.2-12.5 1.1-13.9 1-16-.5-1.3-1-1.6-1.5-.7-1.2.9.3 2.9-.3 4.4-1.3 1.9-1.2 3.8-1.7 5.7-1.3 2.3.5 2.7.3 2.2-1.1-.3-.9-.9-1.6-1.3-1.6-.9 0-.7-2.3.4-6.3 1.1-4.1 3.4-4.9 7.1-2.6 1.7 1 3.4 1.9 3.8 1.9z"/><path d="M92.8 49.7c.7.3 1.6.2 1.9-.1.4-.3-.2-.6-1.3-.5-1.1 0-1.4.3-.6.6zM247.4 89.6c-1 .8-1.3 1.2-.6.9.8-.4 2.6-1.1 4-1.5 2.2-.7 2.3-.8.6-.9-1.1-.1-2.9.6-4 1.5zM256.2 92c0 1.9.2 2.7.5 1.7.2-.9.2-2.5 0-3.5-.3-.9-.5-.1-.5 1.8zM38.5 110c-1.6.7-1.7.9-.3.9.9.1 2-.4 2.3-.9.7-1.1.7-1.1-2 0zM44.2 113c0 1.9.2 2.7.5 1.7.2-.9.2-2.5 0-3.5-.3-.9-.5-.1-.5 1.8zM202.2 234c0 1.4.2 1.9.5 1.2.2-.6.2-1.8 0-2.5-.3-.6-.5-.1-.5 1.3zM200.7 238.9c-.4 1.7-.3 2.1.5 1.3.5-.5.8-1.6.6-2.3-.3-.8-.7-.3-1.1 1zM95.8 270.7c.7.3 1.6.2 1.9-.1.4-.3-.2-.6-1.3-.5-1.1 0-1.4.3-.6.6z"/></svg>